<?xml version="1.0" standalone="no"?><!DOCTYPE svg PUBLIC "-//W3C//DTD SVG 1.1//EN" "http://www.w3.org/Graphics/SVG/1.1/DTD/svg11.dtd"><svg class="icon" width="34px" height="34.00px" viewBox="0 0 1024 1024" version="1.1" xmlns="http://www.w3.org/2000/svg"><path fill="#1296db" d="M512 0a512 512 0 1 0 512 512A512.534796 512.534796 0 0 0 512 0z m0 950.599295a438.599295 438.599295 0 1 1 438.599295-438.599295 439.067241 439.067241 0 0 1-438.599295 438.599295zM714.754407 303.897637L440.136832 605.188145 276.756757 463.600992a36.700353 36.700353 0 1 0-48.064761 55.485051l190.788354 165.118161 1.136441 0.869043 1.270139 1.002742 1.537538 1.002742 1.336989 0.869043 1.604387 0.869043 1.403839 0.735344 1.671236 0.735344 1.403839 0.601645 1.804935 0.601645 1.336989 0.401097 2.005484 0.467946H448.626714l2.607129-0.401097 1.403838-0.334247 2.272882-0.601645 1.470688-0.534796 2.072333-0.802193 1.537538-0.735344 1.938634-1.002742 1.470688-0.935893 1.804935-1.13644 1.403839-1.136441 1.671236-1.336989 1.27014-1.27014 1.27014-1.27014 298.415981-327.562345a36.700353 36.700353 0 0 0-54.28176-49.401749z" /></svg>