<?xml version="1.0" standalone="no"?><!DOCTYPE svg PUBLIC "-//W3C//DTD SVG 1.1//EN" "http://www.w3.org/Graphics/SVG/1.1/DTD/svg11.dtd"><svg class="icon" width="150px" height="150.00px" viewBox="0 0 1024 1024" version="1.1" xmlns="http://www.w3.org/2000/svg"><path fill="#bfbfbf" d="M853.344 341.344C853.344 294.4 814.944 256 768 256s-85.344 38.4-85.344 85.344 38.4 85.344 85.344 85.344 85.344-38.4 85.344-85.344zM0 85.344v853.344h512v-85.344H85.344V742.4l256-256L512 657.056l59.744-59.744-230.4-230.4-256 256V170.656h853.344v298.656l85.344 85.344V85.312zM951.456 840.544L1011.2 780.8l-200.544-200.544-200.544 200.544 59.744 59.744L768 742.4v238.944h85.344V742.4z" /></svg>